<?xml version="1.0" standalone="no"?>
<!DOCTYPE svg PUBLIC "-//W3C//DTD SVG 20010904//EN"
 "http://www.w3.org/TR/2001/REC-SVG-20010904/DTD/svg10.dtd">
<svg version="1.0" xmlns="http://www.w3.org/2000/svg"
 width="659.000000pt" height="659.000000pt" viewBox="0 0 659.000000 659.000000"
 preserveAspectRatio="xMidYMid meet">
<metadata>
Created by potrace 1.14, written by Peter Selinger 2001-2017
</metadata>
<g transform="translate(0.000000,659.000000) scale(0.100000,-0.100000)"
fill="#000000" stroke="none">
<path d="M3265 6572 c-69 -25 -135 -86 -162 -150 -19 -45 -18 -140 1 -186 9
-21 30 -55 47 -77 17 -22 37 -60 45 -86 16 -54 18 -123 4 -123 -6 0 -10 -26
-10 -59 0 -57 2 -62 44 -105 41 -44 46 -46 97 -45 71 1 84 7 124 58 30 38 35
51 35 97 0 30 -4 54 -10 54 -5 0 -10 24 -10 53 0 55 23 110 81 198 75 114 35
274 -87 345 -34 20 -62 28 -112 30 -37 2 -76 0 -87 -4z"/>
<path d="M3235 5413 c-146 -29 -237 -75 -325 -163 -150 -149 -332 -496 -415
-791 -36 -126 -33 -160 17 -213 18 -19 18 -22 2 -31 -108 -64 -251 -195 -320
-291 -132 -185 -292 -532 -378 -817 -54 -179 -47 -237 37 -322 37 -36 74 -60
126 -82 l73 -30 -46 -23 c-84 -43 -145 -121 -166 -215 -7 -30 -11 -174 -12
-371 0 -272 3 -331 17 -379 29 -102 73 -155 164 -201 97 -48 273 -40 354 18
15 11 27 15 27 11 0 -5 17 -18 38 -29 31 -17 54 -20 143 -20 73 1 112 6 123
15 13 11 21 11 47 1 17 -7 41 -14 52 -15 12 0 39 -18 60 -39 36 -37 37 -39 37
-117 0 -66 -3 -81 -17 -86 -19 -7 -182 -7 -353 0 -115 4 -152 -2 -185 -33
l-22 -20 -44 24 c-61 33 -131 47 -214 42 -84 -5 -145 -27 -202 -73 l-42 -33
-28 26 c-85 79 -246 104 -373 59 -76 -27 -150 -101 -180 -180 -28 -76 -31
-214 -5 -290 18 -52 68 -135 104 -172 11 -12 21 -24 21 -26 0 -3 -19 -7 -42
-10 -37 -5 -47 -2 -70 20 -22 21 -40 28 -88 31 -53 4 -60 7 -61 26 -1 11 -2
140 -3 286 -3 285 -10 339 -59 411 l-23 34 23 34 c48 72 56 126 59 411 1 146
2 275 3 288 1 20 6 22 51 22 59 0 94 14 117 49 14 22 18 54 19 187 3 177 -1
195 -54 230 -30 20 -42 22 -175 19 -152 -3 -205 -14 -279 -58 -57 -34 -94 -70
-130 -126 -57 -90 -62 -125 -64 -471 -1 -173 -2 -321 -3 -327 -1 -8 -15 -13
-36 -13 -54 0 -101 -24 -121 -61 -13 -26 -16 -62 -17 -183 0 -87 5 -163 11
-178 16 -38 68 -68 120 -68 26 0 42 -5 43 -12 1 -7 2 -152 3 -323 2 -330 8
-381 52 -459 32 -56 95 -118 153 -149 76 -42 160 -57 303 -54 115 2 129 4 150
24 l23 22 33 -40 c37 -43 94 -76 162 -93 116 -29 273 7 339 78 l24 25 30 -29
c26 -26 84 -60 112 -66 110 -25 189 -23 269 7 31 11 58 25 61 30 8 12 45 12
45 -1 0 -5 13 -16 30 -25 23 -12 73 -15 262 -15 213 0 235 2 262 19 29 19 30
19 67 1 76 -39 197 -45 296 -14 82 26 170 113 189 188 11 45 21 28 19 -31 -3
-69 13 -112 50 -141 25 -20 40 -22 139 -22 124 0 167 16 187 67 l10 28 16 -33
c25 -51 57 -62 180 -62 109 0 143 9 165 46 6 9 22 5 61 -16 113 -62 293 -57
387 10 25 18 26 18 59 -12 l33 -30 113 4 c93 2 117 6 133 22 21 18 22 18 48
-3 23 -18 40 -21 135 -21 59 0 120 5 134 10 32 12 64 48 65 73 0 14 4 16 18 8
22 -12 236 -11 303 1 114 21 231 104 280 199 42 83 48 137 49 464 0 170 4 313
8 316 4 4 29 9 55 12 57 5 93 34 107 86 5 20 8 99 7 177 -2 116 -5 145 -20
168 -21 31 -72 56 -116 56 -16 0 -32 4 -35 9 -3 4 -6 147 -6 317 -1 170 -6
330 -11 354 -35 159 -150 271 -313 304 -34 7 -115 13 -181 12 -133 -1 -166
-12 -187 -64 -14 -33 -18 -307 -5 -344 16 -49 61 -78 122 -78 38 0 54 -4 59
-15 3 -8 6 -138 6 -289 1 -292 6 -328 54 -410 l24 -42 -24 -39 c-21 -35 -39
-83 -49 -135 -2 -8 -4 -136 -4 -285 -1 -148 -5 -275 -9 -281 -4 -7 -34 -13
-67 -15 l-60 -4 0 275 c-1 151 -5 285 -9 297 -4 12 -21 33 -39 45 -27 20 -43
22 -138 22 -70 1 -111 -4 -121 -12 -12 -10 -22 -9 -49 1 -53 21 -268 16 -303
-7 -15 -9 -29 -23 -32 -31 -4 -10 -13 -8 -40 10 -101 68 -280 70 -392 5 l-34
-20 -30 25 c-34 29 -19 27 -251 29 -214 1 -205 -5 -203 126 1 49 4 91 6 94 3
2 37 6 75 7 75 3 139 18 184 45 28 16 30 16 62 -7 30 -21 44 -23 143 -24 98
-1 113 2 142 22 21 13 36 18 40 12 13 -22 63 -32 159 -34 55 0 112 3 127 8 39
13 78 62 78 99 0 16 -38 157 -85 312 -47 155 -85 288 -85 295 0 7 39 89 86
184 96 193 100 216 44 271 -29 29 -36 31 -128 37 -53 3 -90 6 -81 7 22 3 125
57 165 87 80 61 105 148 78 267 -15 62 -66 224 -84 263 -5 11 -29 70 -54 131
-66 164 -155 337 -235 455 -88 130 -108 152 -218 235 -48 37 -90 68 -92 70 -2
2 15 22 38 44 22 22 42 49 42 60 1 11 2 26 3 33 9 70 -146 524 -247 722 -109
215 -202 303 -367 350 -61 17 -245 29 -295 18z m1163 -2777 c-7 -8 -16 -12
-21 -9 -11 7 2 23 19 23 12 0 12 -2 2 -14z m-1353 -83 c-9 -65 -15 -70 -32
-34 -9 17 -27 42 -41 56 l-25 25 53 0 52 0 -7 -47z m493 -2 c-18 -28 -35 -50
-38 -50 -3 -1 -7 11 -8 27 -1 15 -4 37 -6 50 -4 20 -1 22 40 22 l44 0 -32 -49z"/>
<path d="M4805 4836 c-51 -16 -112 -48 -148 -78 l-29 -24 33 -31 32 -32 36 27
c48 37 82 51 145 58 64 8 152 -15 194 -51 l29 -24 32 33 33 34 -23 21 c-13 12
-48 34 -79 48 -64 31 -188 40 -255 19z"/>
<path d="M1896 4698 c-9 -12 -16 -39 -16 -60 0 -21 -4 -38 -10 -38 -13 0 -13
-33 0 -46 5 -5 10 -27 11 -49 3 -45 23 -75 51 -75 21 0 25 29 6 48 -6 6 -13
28 -14 48 -1 20 -7 40 -14 44 -9 6 -9 9 0 12 6 2 12 23 13 46 1 23 8 44 15 47
6 2 12 14 12 25 0 28 -34 26 -54 -2z"/>
<path d="M2023 4713 c-18 -7 -16 -33 2 -33 9 0 16 -10 16 -22 1 -13 3 -34 5
-48 6 -34 6 -42 0 -65 -2 -11 -5 -32 -5 -47 -1 -18 -6 -28 -16 -28 -15 0 -22
-29 -7 -31 4 0 15 -2 24 -4 24 -4 38 16 44 66 3 24 10 49 16 57 8 9 8 19 0 35
-7 12 -14 39 -16 60 -7 56 -27 75 -63 60z"/>
<path d="M4813 4689 c-27 -11 -57 -27 -66 -37 -15 -16 -14 -20 8 -46 l25 -29
51 22 c54 24 94 22 138 -6 22 -14 25 -13 57 18 33 32 34 35 17 47 -61 47 -153
59 -230 31z"/>
<path d="M1530 4578 c-40 -104 -45 -139 -16 -107 13 13 86 190 86 207 0 5 -6
9 -14 9 -9 0 -30 -41 -56 -109z"/>
<path d="M1366 4630 c-71 -27 -81 -36 -68 -57 9 -14 138 -64 146 -56 13 13
-16 40 -56 52 l-43 13 50 20 c59 23 54 19 46 39 -5 13 -15 12 -75 -11z"/>
<path d="M1635 4650 c-8 -14 20 -40 60 -54 l40 -14 -47 -13 c-39 -11 -48 -17
-48 -36 l0 -22 67 25 c83 31 82 31 79 50 -3 17 -143 77 -151 64z"/>
<path d="M4846 4547 c-18 -13 -17 -15 8 -40 15 -15 30 -27 35 -27 4 0 19 13
34 28 21 22 24 31 15 40 -16 16 -70 15 -92 -1z"/>
<path d="M4621 4421 c-6 -11 -8 -26 -5 -35 16 -41 77 -22 72 22 -4 35 -51 44
-67 13z"/>
<path d="M4782 4428 c-32 -32 8 -80 48 -58 21 11 25 27 14 54 -7 19 -45 21
-62 4z"/>
<path d="M4934 4415 c-8 -31 10 -55 37 -50 29 6 39 14 39 34 0 44 -65 58 -76
16z"/>
<path d="M5097 4433 c-14 -13 -6 -53 12 -63 38 -20 71 13 51 51 -10 18 -50 26
-63 12z"/>
<path d="M1287 4355 c-19 -19 -20 -131 -1 -150 14 -14 50 -10 60 7 11 18 7
128 -6 143 -16 19 -34 19 -53 0z m38 -66 c2 -51 -3 -71 -16 -63 -14 8 -11 116
3 112 7 -3 13 -24 13 -49z"/>
<path d="M1402 4352 c-17 -13 -20 -20 -11 -29 6 -6 12 -37 12 -67 0 -55 11
-82 23 -53 2 7 4 48 2 90 l-3 76 -23 -17z"/>
<path d="M1688 4350 c-19 -18 -24 -35 -8 -25 6 4 10 -18 10 -59 0 -52 3 -66
15 -66 12 0 15 15 15 79 0 44 -3 82 -7 84 -5 3 -16 -3 -25 -13z"/>
<path d="M1762 4358 c-7 -7 -12 -40 -12 -80 0 -54 3 -69 18 -76 19 -10 43 -5
54 12 12 18 9 131 -4 144 -7 7 -19 12 -28 12 -9 0 -21 -5 -28 -12z m38 -78 c0
-69 -16 -82 -21 -17 -5 52 -1 77 12 77 5 0 9 -27 9 -60z"/>
<path d="M1876 4351 c-18 -20 -22 -36 -6 -26 6 4 10 -18 10 -59 0 -53 3 -66
16 -66 12 0 15 14 13 80 -1 44 -5 83 -9 85 -4 3 -15 -4 -24 -14z"/>
<path d="M1948 4353 c-22 -27 -17 -131 7 -149 16 -12 22 -12 39 0 28 18 35
125 11 150 -21 21 -38 20 -57 -1z m42 -67 c0 -30 -4 -58 -10 -61 -11 -7 -12
-2 -15 60 -2 44 1 55 16 55 5 0 9 -24 9 -54z"/>
<path d="M2042 4358 c-7 -7 -12 -40 -12 -80 0 -54 3 -69 18 -76 19 -10 43 -5
54 12 11 17 9 115 -2 137 -12 21 -40 25 -58 7z m39 -35 c3 -39 -1 -96 -6 -101
-9 -9 -13 2 -15 43 -3 60 -1 75 10 75 6 0 11 -8 11 -17z"/>
<path d="M1491 4351 c-11 -7 -12 -13 -3 -23 6 -7 10 -39 9 -71 -2 -45 1 -57
13 -57 12 0 15 15 15 80 1 80 -4 90 -34 71z"/>
<path d="M4619 4286 c-9 -20 -9 -29 1 -41 28 -34 87 5 64 43 -18 28 -52 27
-65 -2z"/>
<path d="M4781 4297 c-15 -15 -14 -42 4 -57 32 -26 81 13 59 48 -13 19 -48 24
-63 9z"/>
<path d="M4942 4298 c-25 -25 -6 -68 30 -68 10 0 24 12 30 26 11 22 10 28 -7
40 -23 17 -37 18 -53 2z"/>
<path d="M5102 4298 c-22 -22 -14 -57 13 -64 31 -8 55 10 50 38 -7 35 -40 49
-63 26z"/>
<path d="M4626 4161 c-21 -24 -20 -37 6 -55 30 -21 60 -4 56 31 -4 34 -40 48
-62 24z"/>
<path d="M4798 4172 c-31 -6 -34 -64 -5 -75 7 -2 22 -1 35 4 44 16 17 81 -30
71z"/>
<path d="M4946 4168 c-9 -5 -16 -20 -16 -33 0 -41 60 -55 75 -18 14 38 -23 71
-59 51z"/>
<path d="M5108 4169 c-24 -14 -23 -56 2 -69 16 -8 24 -6 40 10 24 24 23 38 -6
56 -13 9 -24 10 -36 3z"/>
</g>
</svg>
