<?xml version="1.0" standalone="no"?>
<!DOCTYPE svg PUBLIC "-//W3C//DTD SVG 20010904//EN"
 "http://www.w3.org/TR/2001/REC-SVG-20010904/DTD/svg10.dtd">
<svg version="1.0" xmlns="http://www.w3.org/2000/svg"
 width="727.000000pt" height="727.000000pt" viewBox="0 0 727.000000 727.000000"
 preserveAspectRatio="xMidYMid meet">
<metadata>
Created by potrace 1.14, written by Peter Selinger 2001-2017
</metadata>
<g transform="translate(0.000000,727.000000) scale(0.100000,-0.100000)"
fill="#000000" stroke="none">
<path d="M5298 6860 c-120 -62 -295 -187 -378 -270 -126 -127 -223 -282 -304
-488 l-41 -104 -53 -18 c-165 -58 -326 -201 -395 -352 -36 -77 -13 -90 87 -49
64 27 202 59 234 55 6 -1 16 -2 20 -3 4 0 8 -10 9 -22 2 -27 17 -44 53 -59 16
-7 28 -16 25 -20 -8 -13 81 -5 97 8 8 6 29 38 45 69 17 32 81 150 142 262 61
113 111 210 111 217 0 7 -9 29 -21 48 -31 54 -28 119 9 170 17 22 34 40 38 39
5 -1 16 5 25 13 9 8 19 11 22 7 10 -9 79 -11 97 -2 8 4 24 1 35 -7 16 -12 17
-14 2 -14 -9 0 -17 5 -17 11 0 5 -5 7 -12 3 -8 -5 -4 -11 13 -18 13 -6 32 -21
43 -34 13 -16 21 -20 26 -12 5 8 9 7 13 -5 4 -9 3 -13 -3 -10 -16 10 -12 -7
10 -43 12 -19 17 -31 12 -28 -5 3 -12 -15 -15 -40 -8 -71 -60 -114 -146 -119
l-44 -3 -59 -109 c-33 -59 -82 -151 -110 -203 -28 -52 -66 -123 -85 -158 -30
-54 -52 -149 -32 -136 4 2 16 -7 27 -21 11 -13 22 -22 25 -19 3 3 20 -2 37
-11 26 -14 38 -15 58 -6 20 10 27 9 38 -6 24 -32 72 -167 85 -239 15 -81 11
-74 38 -79 17 -3 27 8 54 54 39 66 75 167 84 237 13 100 5 240 -17 298 -9 25
-6 34 23 74 110 152 159 235 206 353 70 174 96 324 94 536 -2 198 -15 239 -84
267 -52 21 -54 21 -121 -14z m-188 -484 c0 -2 -7 -7 -16 -10 -8 -3 -12 -2 -9
4 6 10 25 14 25 6z m90 -71 c0 -5 -5 -3 -10 5 -5 8 -10 20 -10 25 0 6 5 3 10
-5 5 -8 10 -19 10 -25z"/>
<path d="M2955 6663 c-44 -14 -109 -33 -145 -43 -165 -46 -304 -91 -412 -133
-112 -44 -355 -162 -389 -189 -15 -12 -12 -20 31 -93 26 -44 76 -129 111 -190
75 -129 87 -134 172 -87 93 52 131 72 177 91 62 26 315 111 494 166 82 25 153
48 157 50 4 3 3 22 -1 42 -8 35 -11 60 -25 185 -9 87 -16 123 -32 176 -19 61
-20 61 -138 25z"/>
<path d="M5032 6283 c-19 -8 -40 -55 -36 -83 2 -14 16 -35 30 -47 78 -70 176
40 106 120 -15 16 -70 22 -100 10z"/>
<path d="M1820 6189 c-280 -170 -498 -352 -789 -660 l-53 -57 37 -41 c21 -23
85 -77 144 -120 58 -43 121 -92 140 -110 28 -26 36 -29 50 -19 9 7 90 85 181
174 91 90 190 183 220 207 52 42 337 248 370 267 17 10 7 31 -105 225 -32 55
-66 116 -77 135 -11 19 -23 38 -27 43 -4 4 -45 -16 -91 -44z"/>
<path d="M3075 6100 c-33 -10 -130 -37 -215 -60 -189 -51 -341 -106 -482 -177
l-107 -54 20 -37 c11 -20 24 -44 29 -52 50 -81 114 -199 141 -260 58 -131 41
-125 175 -59 97 48 294 122 354 134 10 2 72 18 138 35 l121 32 -5 47 c-3 25
-9 71 -14 101 -12 73 -17 105 -25 165 -3 27 -13 83 -21 125 -7 41 -14 76 -14
78 0 6 -41 -1 -95 -18z"/>
<path d="M2130 5725 c-6 -8 -62 -48 -123 -89 -132 -87 -174 -122 -367 -306
-80 -75 -163 -154 -185 -174 l-40 -37 50 -46 c27 -25 92 -76 145 -114 52 -37
122 -91 155 -118 32 -28 62 -51 65 -51 3 0 53 46 110 103 142 139 229 212 360
302 60 42 115 86 121 96 6 11 8 32 4 47 -5 25 -198 359 -225 390 -15 17 -55
15 -70 -3z"/>
<path d="M3205 5495 c-254 -84 -551 -187 -574 -200 -34 -17 -51 -43 -43 -65 7
-23 150 -278 194 -347 22 -34 46 -64 53 -67 8 -3 47 12 87 33 87 46 177 79
317 117 l103 27 -6 36 c-3 20 -8 47 -10 61 -3 14 -10 61 -16 105 -6 44 -12 91
-15 105 -2 14 -6 43 -10 65 -5 40 -34 146 -38 144 -1 -1 -20 -7 -42 -14z"/>
<path d="M4528 5402 c-37 -24 -64 -61 -96 -129 -24 -51 -27 -70 -27 -156 0
-109 7 -121 58 -106 103 29 219 168 234 279 13 93 -92 163 -169 112z"/>
<path d="M4747 5409 c7 -7 15 -10 18 -7 3 3 -2 9 -12 12 -14 6 -15 5 -6 -5z"/>
<path d="M2440 5182 c-223 -160 -210 -150 -304 -232 -70 -61 -195 -189 -207
-211 -7 -14 -5 -22 8 -33 10 -8 92 -72 183 -142 91 -70 171 -134 178 -141 7
-7 18 -13 23 -13 5 0 43 34 85 75 42 42 135 117 205 167 71 50 129 96 129 101
0 6 -44 87 -99 181 -54 94 -110 191 -124 216 -29 51 -42 57 -77 32z"/>
<path d="M1334 4998 c-68 -73 -148 -193 -234 -353 -61 -113 -53 -97 -145 -302
l-28 -63 -151 -1 c-178 0 -219 -4 -306 -30 -213 -62 -384 -242 -439 -461 -22
-85 -27 -242 -11 -314 7 -27 13 -56 15 -64 22 -102 117 -244 221 -330 72 -59
215 -121 309 -134 22 -3 358 -5 748 -6 l707 0 0 -22 c0 -33 46 -200 67 -245
10 -21 25 -38 33 -38 17 0 49 -50 50 -77 0 -10 -4 -18 -10 -18 -5 0 -10 -5
-10 -10 0 -17 107 -189 165 -266 81 -106 114 -137 129 -125 10 9 26 -1 64 -38
118 -114 272 -223 415 -292 43 -21 77 -41 77 -45 -2 -10 58 -38 133 -63 156
-51 449 -76 672 -58 127 10 166 19 325 68 167 53 367 153 494 247 191 144 395
371 454 505 13 31 29 57 34 57 19 0 114 235 164 408 3 9 153 12 706 13 387 0
717 3 733 5 135 21 292 102 371 194 12 14 34 39 49 55 33 38 99 175 115 240
16 65 21 235 8 305 -25 140 -77 239 -183 346 -65 65 -98 90 -166 122 -71 35
-224 77 -255 71 -5 -1 -58 -1 -119 0 l-110 1 -34 98 c-61 175 -139 329 -240
469 l-45 63 -40 -24 c-32 -19 -218 -145 -380 -258 -17 -13 -16 -16 17 -73 19
-33 59 -108 90 -167 l55 -108 -53 0 -54 0 -61 114 c-33 63 -69 125 -79 137
l-19 23 -78 -53 c-44 -30 -129 -92 -191 -138 l-112 -83 -106 0 c-80 0 -105 3
-105 13 0 16 -124 144 -243 252 -96 86 -106 93 -116 77 -8 -13 -91 37 -91 54
0 39 -290 171 -413 189 -23 4 -89 18 -147 32 -86 21 -135 26 -265 29 -154 3
-323 -12 -411 -35 -22 -5 -50 -12 -64 -15 -72 -13 -275 -92 -368 -143 -187
-103 -390 -271 -495 -410 -31 -41 -33 -42 -92 -43 -46 0 -56 3 -47 12 20 20
14 34 -30 76 -59 56 -341 272 -354 272 -11 0 -116 -149 -198 -282 l-48 -78
-49 0 c-27 0 -49 3 -49 6 0 3 19 43 42 87 55 108 140 239 188 291 l39 42 -21
18 c-12 10 -89 69 -172 131 -83 62 -164 127 -180 144 -17 17 -33 31 -36 31 -3
0 -20 -15 -36 -32z"/>
<path d="M1965 2452 c-27 -15 -99 -50 -160 -76 -60 -27 -136 -62 -167 -77 -56
-28 -57 -30 -51 -62 12 -65 106 -207 282 -426 l115 -143 190 193 191 194 -81
100 c-44 55 -98 127 -119 160 -73 112 -116 165 -133 165 -9 0 -39 -13 -67 -28z"/>
<path d="M5146 2372 c-14 -15 -45 -55 -68 -89 -59 -83 -120 -155 -202 -234
-77 -76 -77 -70 -8 -146 16 -18 83 -96 148 -173 65 -77 124 -140 130 -140 23
0 256 244 330 345 16 22 31 42 34 45 11 10 100 154 100 161 0 16 -59 52 -204
126 -83 42 -170 89 -193 105 l-42 29 -25 -29z"/>
<path d="M1390 2183 c-47 -23 -121 -57 -165 -74 -109 -43 -235 -101 -235 -108
0 -3 21 -42 46 -86 26 -44 55 -96 66 -115 102 -179 161 -261 332 -463 l99
-116 26 18 c31 23 111 101 164 162 22 24 74 80 118 125 l79 81 -23 24 c-63 66
-141 162 -255 314 -28 37 -67 105 -106 183 -25 50 -49 92 -53 94 -4 3 -46 -15
-93 -39z"/>
<path d="M2914 1552 c-99 -222 -164 -375 -162 -378 11 -9 140 -57 200 -74 89
-24 244 -56 318 -65 30 -4 58 -9 62 -11 13 -8 116 -6 130 2 9 7 13 37 14 109
1 55 5 166 9 246 5 95 4 148 -2 152 -6 4 -36 9 -68 13 -56 6 -69 8 -125 19
-14 2 -36 7 -50 9 -55 9 -168 41 -222 62 l-57 22 -47 -106z"/>
<path d="M4070 1594 c-86 -28 -245 -52 -384 -59 -49 -3 -91 -7 -93 -9 -15 -14
-22 -522 -8 -520 6 1 64 5 131 8 66 4 131 8 145 11 13 2 47 6 74 10 118 14
355 70 382 90 2 1 -8 28 -21 61 -13 32 -38 109 -56 169 -17 61 -35 119 -40
130 -5 11 -19 44 -31 73 -24 57 -28 58 -99 36z"/>
<path d="M4320 1020 c-20 -10 -264 -67 -320 -74 -105 -13 -190 -21 -320 -31
-41 -3 -84 -8 -95 -10 -11 -2 -22 -4 -25 -4 -3 -1 -6 -36 -6 -78 -1 -43 -5
-143 -9 -223 -4 -80 -7 -147 -7 -150 0 -3 0 -19 1 -36 1 -31 2 -31 49 -29 136
8 282 17 317 20 121 12 168 17 188 21 12 2 39 6 62 9 22 3 47 8 55 10 8 2 31
7 50 10 60 10 153 37 209 62 43 18 52 26 46 40 -4 10 -33 97 -65 193 -54 165
-94 265 -109 274 -3 3 -13 1 -21 -4z"/>
</g>
</svg>
